<?xml version="1.0" encoding="utf-8"?>
<!-- Generator: Adobe Illustrator 24.2.1, SVG Export Plug-In . SVG Version: 6.00 Build 0)  -->
<svg version="1.1" id="Layer_1" xmlns="http://www.w3.org/2000/svg" xmlns:xlink="http://www.w3.org/1999/xlink" x="0px" y="0px"
	 viewBox="0 0 100 100" style="enable-background:new 0 0 100 100;" xml:space="preserve">
<g>
	<path d="M43.1,86.4V60.8c0-0.9-0.7-1.6-1.6-1.6H30.9c-0.9,0-1.6,0.7-1.6,1.6c0,0.9,0.7,1.6,1.6,1.6h9v24c-3,0.7-5.3,3.5-5.3,6.7
		c0,3.8,3.1,6.9,6.9,6.9s6.9-3.1,6.9-6.9C48.4,89.8,46.1,87.1,43.1,86.4z M41.5,96.8c-2.1,0-3.7-1.7-3.7-3.7s1.7-3.7,3.7-3.7
		s3.7,1.7,3.7,3.7S43.5,96.8,41.5,96.8z"/>
	<path d="M60.1,86.4V60.8c0-0.9-0.7-1.6-1.6-1.6H47.9c-0.9,0-1.6,0.7-1.6,1.6c0,0.9,0.7,1.6,1.6,1.6h9v24c-3,0.7-5.3,3.5-5.3,6.7
		c0,3.8,3.1,6.9,6.9,6.9s6.9-3.1,6.9-6.9C65.4,89.8,63.2,87.1,60.1,86.4z M58.5,96.8c-2.1,0-3.7-1.7-3.7-3.7s1.7-3.7,3.7-3.7
		c2.1,0,3.7,1.7,3.7,3.7S60.6,96.8,58.5,96.8z"/>
	<path d="M87.2,75.5c-3.3,0-6,2.3-6.7,5.3h-3.4V60.8c0-0.9-0.7-1.6-1.6-1.6H64.9c-0.9,0-1.6,0.7-1.6,1.6c0,0.9,0.7,1.6,1.6,1.6h9
		v20.1c0,0.9,0.7,1.6,1.6,1.6h5c0.7,3,3.5,5.3,6.7,5.3c3.8,0,6.9-3.1,6.9-6.9C94.1,78.6,91,75.5,87.2,75.5z M87.2,86.2
		c-2.1,0-3.7-1.7-3.7-3.7s1.7-3.7,3.7-3.7c2.1,0,3.7,1.7,3.7,3.7S89.3,86.2,87.2,86.2z"/>
	<path d="M96.2,34.4c-2.2-2.7-5.1-4.6-8.3-5.7c-0.4-7.6-3.5-14.6-8.9-20C73.3,3.1,65.7,0,57.7,0C47.2,0,37.4,5.5,31.9,14.4
		c-1.3-0.4-2.7-0.6-4.1-0.6c-6.5,0-12.1,4.6-13.5,10.9C6,26.8,0,34.5,0,43.2c0,10.6,8.6,19.2,19.2,19.2h3.7v18.5h-3.4
		c-0.7-3-3.5-5.3-6.7-5.3c-3.8,0-6.9,3.1-6.9,6.9c0,3.8,3.1,6.9,6.9,6.9c3.3,0,6-2.3,6.7-5.3h5c0.9,0,1.6-0.7,1.6-1.6V60.8
		c0-0.9-0.7-1.6-1.6-1.6h-5.3c-8.8,0-16-7.2-16-16C3.2,35.6,8.6,29,16,27.5c0.7-0.1,1.2-0.7,1.3-1.4C18,20.9,22.5,17,27.8,17
		c1.5,0,2.9,0.3,4.2,0.9c0.8,0.3,1.6,0,2-0.7c4.8-8.6,13.8-14,23.7-14c14.8,0,26.9,12,27,26.8c0,0.7,0.5,1.4,1.2,1.5
		c6.4,1.5,10.9,7.1,10.9,13.7c0,7.7-6.3,14-14,14h-0.9c-0.9,0-1.6,0.7-1.6,1.6c0,0.9,0.7,1.6,1.6,1.6h0.9c9.5,0,17.2-7.7,17.2-17.2
		C100,41.2,98.7,37.4,96.2,34.4z M12.8,86.2c-2.1,0-3.7-1.7-3.7-3.7s1.7-3.7,3.7-3.7s3.7,1.7,3.7,3.7S14.8,86.2,12.8,86.2z"/>
	<path d="M77.8,31.6L77.8,31.6c0.9,0,1.6-0.7,1.6-1.6c0-2.6-0.5-5.2-1.5-7.6c-0.3-0.8-1.2-1.2-2.1-0.9c-0.8,0.3-1.2,1.2-0.9,2.1
		c0.8,2.1,1.2,4.3,1.3,6.5C76.2,30.9,76.9,31.6,77.8,31.6L77.8,31.6z"/>
	<path d="M72,18.5c0.3,0.4,0.8,0.6,1.2,0.6c0.4,0,0.7-0.1,1-0.4c0.7-0.6,0.8-1.6,0.2-2.2c-4.2-5-10.3-7.9-16.7-7.9
		c-0.9,0-1.6,0.7-1.6,1.6s0.7,1.6,1.6,1.6C63.2,11.7,68.4,14.2,72,18.5L72,18.5z"/>
</g>
</svg>
