<?xml version="1.0" encoding="utf-8"?>
<!-- Generator: Adobe Illustrator 24.2.1, SVG Export Plug-In . SVG Version: 6.00 Build 0)  -->
<svg version="1.1" id="Capa_1" xmlns="http://www.w3.org/2000/svg" xmlns:xlink="http://www.w3.org/1999/xlink" x="0px" y="0px"
	 viewBox="0 0 121.3 121.3" style="enable-background:new 0 0 121.3 121.3;" xml:space="preserve">
<g>
	<g>
		<path d="M19.2,93c1.3,2,3.5,3.2,5.8,3.2c1.3,0,2.5-0.3,3.7-1.1c3.2-2,4.1-6.3,2.1-9.4L14.9,60.9l15.8-24.7c2-3.2,1.1-7.4-2.1-9.4
			c-3.2-2-7.4-1.1-9.4,2.1L1.1,57.3c-1.4,2.2-1.4,5.1,0,7.4L19.2,93z"/>
		<path d="M92.6,95c1.1,0.7,2.4,1.1,3.7,1.1c2.3,0,4.5-1.1,5.8-3.2l18.1-28.4c1.4-2.2,1.4-5.1,0-7.4l-18.1-28.4
			c-2-3.2-6.3-4.1-9.4-2.1c-3.2,2-4.1,6.3-2.1,9.4l15.8,24.7L90.6,85.6C88.5,88.8,89.5,93,92.6,95z"/>
		<path d="M37,110c1,0.5,2,0.7,2.9,0.7c2.5,0,5-1.4,6.2-3.9l41.4-86.3c1.6-3.4,0.2-7.5-3.2-9.1c-3.4-1.6-7.5-0.2-9.1,3.2l-41.4,86.3
			C32.1,104.2,33.6,108.3,37,110z"/>
	</g>
</g>
</svg>
