<?xml version="1.0" encoding="utf-8"?>
<!-- Generator: Adobe Illustrator 24.2.1, SVG Export Plug-In . SVG Version: 6.00 Build 0)  -->
<svg version="1.1" id="Layer_1" xmlns:xodm="http://www.corel.com/coreldraw/odm/2003"
	 xmlns="http://www.w3.org/2000/svg" xmlns:xlink="http://www.w3.org/1999/xlink" x="0px" y="0px" viewBox="0 0 104.8 100"
	 style="enable-background:new 0 0 104.8 100;" xml:space="preserve">
<style type="text/css">
	.st0{fill-rule:evenodd;clip-rule:evenodd;}
</style>
<g id="Layer_x0020_1">
	<g id="_105553287614720">
		<path class="st0" d="M24.5,94l5.5,0.1c1.2-0.8,0.1-2.3,2.8-2.3c2,0,7.3-0.4,8.1,0.6c0.7,0.9,0,1.7,1.4,1.7l22.4,0
			c1.2-0.8-0.1-2.3,3-2.3c1.9,0,7.1-0.4,7.9,0.5c1.6,1.9-2.1,1.7,6.4,1.7l0-31.5c0-1.8-0.7-2.4-2.5-2.4H27c-3.3,0-2.5,2.1-2.5,6.5
			L24.5,94L24.5,94z"/>
		<path class="st0" d="M43.6,58.8l2.6,0c-1-2.3-9.5-12.7-11.6-14.8c-2.4-2.4-2-2.6-5.4-5.4c-3.3-2.7-4.4-3.1,2.5-5.3
			c11.4-3.7,22.9-4.3,34.7-1.7c3.2,0.7,9.6,2.2,11.6,4.1c-0.2,1.9-2.8,2.7-5.2,5.3c-3.5,3.7-12.8,14.4-14.3,17.8
			c3.7,0.1,3-0.3,4.8-2.4c1.1-1.3,2.1-2.6,3.2-3.9l3.5-3.7c2.4-2.6,4.9-4.8,7.4-7c7.7-6.9,8.3-2.5,4.1-12
			c-5-11.1-15.1-28.6-27.6-29.7C39.9-1.2,29.2,17.5,24.2,27.9c-0.8,1.6-1.5,3.2-2.3,4.8c-2.3,5-1.7,3.3,3.8,7.7c0.8,0.7,1.2,1,2,1.7
			c4.5,3.6,8.8,8.3,12.5,12.7C41,55.7,42.8,58.3,43.6,58.8L43.6,58.8z"/>
		<path class="st0" d="M17.6,99c0-5.7,0.6-4.4,5.6-4.9l0-6.1c-2.6,0.1-7.2,2.3-9.4,3.2c1.1-2.1,4.4-3.9,7.3-4.4
			c-0.3-0.3-0.6-0.5-1.1-0.9c-5.5-3.1-8.2-1.7-12.1-1.6c6.1-1.3,5.7-2,12.7-0.3c-1-3.3-4.6-5.8-7.6-7.1c-1.2-0.5-2.5-0.8-3.6-1.3
			c3.4-0.2,8.3,1.2,11.2,2.8c1,0.5,2.1,1.5,2.8,1.9c0.1-3.1-0.4-17.9,0.3-19.5c1.1-2.6,4.7-1.9,7.9-1.9c3.3,0,6.8,0.1,10.1,0
			c-0.8-1.8-9.8-11.4-12.1-13.4c-0.8-0.7-1.2-0.9-1.9-1.8c-1.6,0.3-6.6,4.3-7.4,5.2l-3,3.2c-5,6-8.3,12.1-11.4,20
			c-1.3,3.2-6.4,16.5-5.6,19.2C1.4,95.8,13.4,98.8,17.6,99L17.6,99z"/>
		<path class="st0" d="M63.2,58.7c24,1,20-5.4,20.2,20.1c1.9-0.8,3-1.6,5.3-2.3c1.9-0.6,4.7-1.1,6.8-1c-1,0.5-2.4,0.8-3.5,1.2
			c-3,1.3-6.8,3.8-7.8,7.2c5.3-1.3,7.6-1.4,12.6,0.3c-2.8-0.3-4.5-0.8-7.5-0.1c-2.1,0.5-4.4,1.4-5.6,2.6c2.8,0.5,6.3,2.3,7.2,4.3
			c-1.1-0.3-2.3-1-3.6-1.5c-1.2-0.5-2.5-0.9-3.8-1.2l0,5.8c4.9,0,5.6-0.5,5.6,4.6c3.3-0.4,7-1.6,9.8-2.7c8.7-3.6,6.2-6.7,3.2-15.7
			c-3-9.1-6.7-17.6-11.8-25c-1.8-2.6-3.6-4.4-5.7-6.6c-0.9-0.9-5.7-4.8-7.3-5.1l-7.3,7.1C69.1,51.5,63.6,57.8,63.2,58.7L63.2,58.7z"
			/>
		<path class="st0" d="M37.3,33.2c-0.2,6.2,5,21.8,15,22c5.7,0.2,9-4.2,11.1-7.6c1.6-2.7,4.4-10.7,4.2-14.4
			C57,31.1,47.7,30.5,37.3,33.2L37.3,33.2z"/>
		<path class="st0" d="M19,97.1c0,2.5-0.2,2.9,1.6,2.9h-0.9c22.1,0,44.2,0,66.3,0c2,0,1.7-1.9,1.4-4.3c-1.6-0.3-10-0.4-10.9-0.2
			c-0.7,0.4-0.1-0.2-0.5,0.8c-0.4,1.1-0.5,1.6-2.3,1.6h-6.2c-3.4,0-1.3-2.4-3.2-2.4l-22.4,0c-1.2,0.3,0.4,2.4-2.8,2.4l-6.2,0
			c-3.4,0-1.4-2.4-3.2-2.4l-9.3,0C19.2,95.5,19,95.9,19,97.1L19,97.1z"/>
		<path class="st0" d="M66.7,96.4c0.8,0.3,7.1,0.2,8,0l0.1-3.1c-1.5-0.2-4.1-0.1-5.7-0.1c-0.7,0-2.2-0.3-2.5,0.4
			C66.3,94.4,66.4,95.9,66.7,96.4L66.7,96.4z"/>
		<path class="st0" d="M32,96.4c0.8,0.3,7,0.3,7.7,0c0.4-0.3,0.8-2.7-0.1-3.1l-7.4,0C31.5,93.6,31.7,95.8,32,96.4L32,96.4z"/>
	</g>
</g>
</svg>
