<?xml version="1.0" encoding="utf-8"?>
<!-- Generator: Adobe Illustrator 24.2.1, SVG Export Plug-In . SVG Version: 6.00 Build 0)  -->
<svg version="1.1" id="Layer_1" xmlns:xodm="http://www.corel.com/coreldraw/odm/2003"
	 xmlns="http://www.w3.org/2000/svg" xmlns:xlink="http://www.w3.org/1999/xlink" x="0px" y="0px" viewBox="0 0 99.1 100"
	 style="enable-background:new 0 0 99.1 100;" xml:space="preserve">
<style type="text/css">
	.st0{fill-rule:evenodd;clip-rule:evenodd;}
</style>
<g id="Layer_x0020_1">
	<g id="_105553565698880">
		<path class="st0" d="M48.1,53.6c3.4-1.2,5.3,4.1,1.7,5.3C46.5,60,44.5,54.9,48.1,53.6z M47.9,46.9c3.4-0.6,7.3,1.3,8.8,3.6
			c1,1.6-1,3.5-2.6,2.2c-1.1-0.9-1.8-2-3.9-2.3c-2-0.3-3.8,0.5-4.9,1.5c-0.4,0.4-1.1,1.3-1.7,1.5c-1.6,0.5-3.4-1.3-1.6-3.1
			C43.7,48.6,44.6,47.4,47.9,46.9L47.9,46.9z M47,41.1c5.8-0.9,10.8,2,13.4,4.7c0.8,0.9,0.7,2.5-0.6,2.8c-1.2,0.3-2.2-1.1-2.8-1.7
			c-4.6-4-11.6-3.9-16.5,0.7c-0.6,0.5-1.5,2-2.9,1.1c-1.5-1-0.4-2.3,0.3-3C40.4,43.2,43.1,41.7,47,41.1z M82.5,57.8
			c-0.7-0.5-7.3-2.5-8.8-2.9C70.7,53.9,68,53,65,52c-0.1-3.3,0.7-4.5-0.9-8.6c-0.5-1.3-1-2.3-1.7-3.2l-2.1-2.7
			c0.9-1.4,3.6-4.7,3.9-5.6c-0.8,0-4.8-0.1-5.3,0c-0.8,0.3-1.7,2.3-2.4,2.9C53.9,34,53,32.9,48.9,33c-4.6,0-6.2,1.6-7.7,1.8L35,26.1
			c-2.1-2.9-4.2-5.7-6.3-8.6c-0.5,0.4-0.9,1-1.7,1.5c-0.5,0.3-1.6,0.9-1.9,1.2c0.5,0.8,1,1.5,1.6,2.2l7.9,10.9
			c0.6,0.8,2.9,3.7,3.1,4.5c-1.4,1.1-3,3.5-3.8,5.7c-1.3,3.3-0.9,4.9-0.9,8.6c-0.8,0.6-3.3,1.2-4.4,1.5c-0.9,0.3-3.9,1.2-4.4,1.5
			l1.3,4.2l9-2.8c0.8,2.2,3.4,4.8,4.8,5.8c1.1,0.8,1.9,1.3,3.3,1.9c1.3,0.5,2.6,0.9,4.1,1.1l0,16.4c0.8,0,1.5-0.2,2.3-0.2
			c0.7,0,1.5,0.2,2.2,0.1c0-2.4-0.2-15.1,0.1-16.3c1.6-0.5,2.6-0.6,4.2-1.2c3.1-1.3,6.9-4.6,8-7.8l15.6,5
			C79.7,60.8,82.2,58.3,82.5,57.8L82.5,57.8z"/>
		<path class="st0" d="M82.5,21.4c0-1.8-0.2-2.7,2.3-2c0.2,2.1,0.1,5,0,7.2c-0.9,0.3-2.1,0.4-2.2-0.6c0-0.2,0-0.5,0-0.6L82.5,21.4
			L82.5,21.4z M78,26.4c-0.4-0.6-0.1-4.5-0.1-5.5c0-1.3-0.2-1.7,1.2-1.7c1.5,0,1.1,0.5,1.1,1.9l0,3.7c0,1.6,0.1,1.8-0.7,2
			c0,0-0.6,0-0.6,0C78.2,26.7,78.3,26.8,78,26.4L78,26.4z M73.2,20.9c0-1.8-0.2-2,2.2-1.5c0.1,1.3,0.4,6.6-0.1,7.1
			c-0.2,0.1,0,0.1-0.4,0.1c-2.1,0.5-1.7-0.8-1.7-1.1L73.2,20.9L73.2,20.9z M68.5,20.5c0-1.2,0.2-1.5,1.7-1.2
			c0.9,0.2,0.6,0.5,0.6,2.1c0,1.3,0.4,4.9-0.4,5.2c-0.6,0.2-1.2,0.2-1.8,0C68.4,25,68.5,22.2,68.5,20.5z M58.4,16
			c-0.8,0.5-1.4,0.2-1.9,1.2c-0.6,0.9-0.3,8.2-0.3,9.6c0,3.4,1.5,3,4.9,3l23,0c4.4,0,3.7-0.8,3.7-7.4c0-6.4,0.6-5.5-2.1-8.3
			c-0.9-0.9-1.8-1.8-2.7-2.7c-2.7-2.8-4.9,1.8-6.5,2.7c-2-1.3-3.8-5.3-6.4-2.9c-0.9,0.9-1.9,1.9-2.6,2.6c-1.1,1.2-1.9,2.3-3.1,2.3
			c-0.4-3.3-0.6-9.6-0.8-13.5C63.5,0.3,64,0,61.6,0c-2.8,0-2.3-0.8-2.7,6.8C58.7,9.8,58.7,13.1,58.4,16L58.4,16z"/>
		<path class="st0" d="M76.4,71.7c1.5-1.6,3.3-3.3,4.9-4.9c0.8-0.8,4.3-4.5,5-4.8c0.5,1.4,1.6,2,2.7,2.9c-0.3,0.6-3.2,3.3-3.9,4
			c-3.4,3.4-2.3,2.9-5.1,2.9L76.4,71.7L76.4,71.7z M91.6,56.2c1.6-0.4,3,0.7,3.3,1.9c0.4,1.7-0.7,3.1-1.9,3.4
			C89.6,62.5,87.8,57.2,91.6,56.2z M78.6,43.5c0.4,0.2,0.3-0.2,0.4,0.7c0,0.6,0,2.1-0.2,2.6L76.2,47c-0.6,0-0.4,0.1-0.6-0.2
			c-0.5-1.1-0.3-2.3-1.4-2.7c-1.2-0.5-2.3,0.4-2.3,1.5c0,0.5,0.6,2.7,0.7,3.2c0.7,2.2,3.3,1,6.7,1.3c1,0.1,6.1,4.2,7,5
			c-0.1,0.6-0.5,1.1-0.7,1.9c-0.3,1.2-0.1,1-0.9,1.7L72.2,71.3c-0.7,0.7-0.8,0.5-2.1,0.5c-0.8,0-1.8-0.1-2.5,0
			c-0.9,0.1-1.2,0.5-1.2,1.4c-0.1,2.8,0.3,2.8,2.1,2.7c0.7,0,1.5,0,2.2,0l18.3,0c1.2,0,3.3,0.4,3.6-0.8c0.1-0.3,0.1-2,0-2.3
			c-0.1-0.7-0.5-0.9-1.3-0.9c-1.5-0.1-3,0.1-4.5,0c0.5-0.8,4.4-4.5,5.3-5.5c1.3-1.3,1.5-0.2,3.7-1.7c1.2-0.8,1.8-1.5,2.4-2.8
			c2.5-5.3-2.2-10.9-7.7-9.6c-2.7,0.6-0.8,1.6-5.5-2c-4.7-3.7-2.8-1.1-3.2-7.8c-0.1-1.7-1.4-1.7-2.9-2c-0.7-0.2-3.1-1-3.3,1.1
			C75.7,43.1,77.3,43.2,78.6,43.5L78.6,43.5z"/>
		<path class="st0" d="M10.7,57.3c2.3-0.6,4.5,1,4.9,2.9c0.6,2.6-1,4.6-2.9,5.1C7.6,66.6,5.1,58.9,10.7,57.3z M4.5,52
			c-0.8,0.3-1.3,1.2-1.8,1.7c-0.6,0.6-1.5,1.2-0.8,2.2c0.5,0.9,1.3,1.1,0.9,2.3c-0.4,1.1-0.5,1.7-0.5,3c-1,0.7-2.6,1-2.2,2.3
			c0.2,0.8,0.8,2.9,1.3,3.4c1,0.2,1.7-0.1,2.7-0.1c0.6,0.6,0.7,0.9,1.3,1.4c0.5,0.4,1,0.8,1.6,1.1L7,71.9c0.2,0.6,4.1,1.3,4.5,1
			c0.3-0.4,0.9-2,1.1-2.2c0.3-0.3,2-0.6,2.5-0.8c1.4-0.6,1.1-0.6,2.3,0.1c1.7,1.1,1.4,0.4,3.6-1.8c1.9-1.9-1.4-1.6-0.5-4.2
			c0.3-0.9,0.4-1.7,0.5-2.7c0.7-0.5,1.6-0.8,2.3-1.5c0-0.8-0.3-1.5-0.6-2.3c-0.1-0.4-0.2-0.7-0.3-1.1c-0.7-1.9-2.3-0.4-3.2-0.8
			c-0.6-0.6-0.7-0.9-1.3-1.4c-0.6-0.5-1-0.7-1.5-1.1c0-0.9,0.2-2-0.2-2.7c-0.5-0.4-3.7-1.1-4.3-0.8c-0.7,0.4-0.7,1.6-1.3,2.2
			c-0.3,0.3-1,0.3-1.7,0.5c-0.6,0.2-0.9,0.4-1.5,0.6C6.4,53.4,5.8,52.2,4.5,52L4.5,52z"/>
		<path class="st0" d="M57.1,92.9c0.8-4.8-3-8.7-6.9-9.2c-4.9-0.7-8.8,2.8-9.4,7c-0.6,5,2.9,8.7,7.1,9.2
			C52.8,100.6,56.4,97.1,57.1,92.9L57.1,92.9z"/>
		<path class="st0" d="M21.6,7c-7.4,1-6,12.4,1.6,11.2c2.8-0.4,5.1-3,4.7-6.5C27.6,8.9,24.8,6.6,21.6,7L21.6,7z"/>
		<path class="st0" d="M75.5,46.7c0.2,0.3,0.1,0.2,0.6,0.2l2.6-0.1c0.2-0.5,0.2-2,0.2-2.6c0-0.9,0-0.5-0.4-0.7
			c0.4,0.8,0.2,2.3,0.1,3.2L75.5,46.7L75.5,46.7z"/>
	</g>
</g>
</svg>
