<?xml version="1.0" encoding="utf-8"?>
<!-- Generator: Adobe Illustrator 24.2.1, SVG Export Plug-In . SVG Version: 6.00 Build 0)  -->
<svg version="1.1" id="Layer_1" xmlns="http://www.w3.org/2000/svg" xmlns:xlink="http://www.w3.org/1999/xlink" x="0px" y="0px"
	 viewBox="0 0 113 100" style="enable-background:new 0 0 113 100;" xml:space="preserve">
<style type="text/css">
	.st0{clip-path:url(#SVGID_2_);}
	.st1{opacity:7.000000e-02;enable-background:new    ;}
	.st2{fill:#FFFFFF;}
</style>
<path d="M24.7,95L1.7,55c-1.8-3.1-1.8-7,0-10.1L24.7,5c1.8-3.1,5.1-5,8.7-5h46.1c3.6,0,6.9,1.9,8.7,5l23,39.9c1.8,3.1,1.8,7,0,10.1
	L88.3,95c-1.8,3.1-5.1,5-8.7,5H33.5C29.9,100,26.5,98.1,24.7,95z"/>
<g>
	<defs>
		<path id="SVGID_1_" d="M24.7,95L1.7,55c-1.8-3.1-1.8-7,0-10.1L24.7,5c1.8-3.1,5.1-5,8.7-5h46.1c3.6,0,6.9,1.9,8.7,5l23,39.9
			c1.8,3.1,1.8,7,0,10.1L88.3,95c-1.8,3.1-5.1,5-8.7,5H33.5C29.9,100,26.5,98.1,24.7,95z"/>
	</defs>
	<clipPath id="SVGID_2_">
		<use xlink:href="#SVGID_1_"  style="overflow:visible;"/>
	</clipPath>
	<g class="st0">
		<polygon class="st1" points="112.1,65.7 70.8,24.3 60,29.8 54.6,24.4 35.9,35.3 39.6,39 29.5,53.7 34.1,58.3 42.1,75.5 
			67.3,100.8 86.3,100.9 		"/>
	</g>
</g>
<polygon class="st2" points="70.5,58.8 73,54.4 82.9,54.4 85.5,50 78.8,38.6 68.5,38.6 65.6,33.3 62.6,33.3 62.6,29.8 67.6,29.8 
	70.6,35.1 76.8,35.1 70.7,24.5 58.3,24.5 58.3,39.5 63.5,39.5 65.6,43 58.3,43 58.3,50 64.9,50 68,44.7 76.1,44.7 78.2,48.2 
	70,48.2 66.9,53.5 58.3,53.5 58.3,66.7 69.2,66.7 67.2,70.2 58.3,70.2 58.3,75.5 70.7,75.5 80.9,57.9 75.1,57.9 72.5,62.3 
	62.6,62.3 62.6,58.8 "/>
<polygon class="st2" points="42.5,58.8 40,54.4 30.1,54.4 27.5,50 34.2,38.6 44.5,38.6 47.4,33.3 50.4,33.3 50.4,29.8 45.4,29.8 
	42.4,35.1 36.2,35.1 42.3,24.5 54.7,24.5 54.7,39.5 49.5,39.5 47.4,43 54.7,43 54.7,50 48.1,50 45,44.7 36.9,44.7 34.8,48.2 
	43,48.2 46.1,53.5 54.7,53.5 54.7,66.7 43.8,66.7 45.8,70.2 54.7,70.2 54.7,75.5 42.3,75.5 32.1,57.9 37.9,57.9 40.5,62.3 
	50.4,62.3 50.4,58.8 "/>
</svg>
