<?xml version="1.0" encoding="utf-8"?>
<!-- Generator: Adobe Illustrator 24.2.1, SVG Export Plug-In . SVG Version: 6.00 Build 0)  -->
<svg version="1.1" id="Layer_1" xmlns:xodm="http://www.corel.com/coreldraw/odm/2003"
	 xmlns="http://www.w3.org/2000/svg" xmlns:xlink="http://www.w3.org/1999/xlink" x="0px" y="0px" viewBox="0 0 321.9 100"
	 style="enable-background:new 0 0 321.9 100;" xml:space="preserve">
<g id="Layer_x0020_1">
	<path d="M65.2,10.3V89c0,7.3-3.4,11-10.3,11H11c-7.3,0-11-3.7-11-11V10.3C0,3.4,3.7,0,11,0h43.9C61.7,0,65.2,3.4,65.2,10.3z
		 M193.5,10.3V89c0,7.3-3.4,11-10.3,11h-43.9c-7.3,0-11-3.7-11-11V10.3c0-6.9,3.7-10.3,11-10.3h43.9C190.1,0,193.5,3.4,193.5,10.3z
		 M321.9,10.3V89c0,7.3-3.4,11-10.3,11h-43.9c-7.3,0-11-3.7-11-11V10.3c0-6.9,3.7-10.3,11-10.3h43.9C318.5,0,321.9,3.4,321.9,10.3
		L321.9,10.3z"/>
</g>
</svg>
