<?xml version="1.0" encoding="utf-8"?>
<!-- Generator: Adobe Illustrator 24.2.1, SVG Export Plug-In . SVG Version: 6.00 Build 0)  -->
<svg version="1.1" id="Layer_1" xmlns="http://www.w3.org/2000/svg" xmlns:xlink="http://www.w3.org/1999/xlink" x="0px" y="0px"
	 viewBox="0 0 100 100" style="enable-background:new 0 0 100 100;" xml:space="preserve">
<style type="text/css">
	.st0{fill:#FFFFFF;}
	.st1{fill:none;stroke:#FFFFFF;}
</style>
<path d="M50,0L50,0c13.8,0,25,5.6,25,12.5v75c0,6.9-11.2,12.5-25,12.5l0,0c-13.8,0-25-5.6-25-12.5v-75C25,5.6,36.2,0,50,0z"/>
<path d="M12.5,25h75c6.9,0,12.5,11.2,12.5,25l0,0c0,13.8-5.6,25-12.5,25h-75C5.6,75,0,63.8,0,50l0,0C0,36.2,5.6,25,12.5,25z"/>
<circle class="st0" cx="36.2" cy="12.5" r="4.6"/>
<circle class="st0" cx="63.8" cy="87.5" r="4.6"/>
<line class="st1" x1="25" y1="23.8" x2="50" y2="23.8"/>
<line class="st1" x1="50" y1="76.2" x2="75" y2="76.2"/>
<path class="st1" d="M23.8,75c0-25,6.2-25,25-25c21.2,0,27.5,0,27.5-25"/>
</svg>
