<?xml version="1.0" encoding="utf-8"?>
<!-- Generator: Adobe Illustrator 24.2.1, SVG Export Plug-In . SVG Version: 6.00 Build 0)  -->
<svg version="1.1"
	 id="svg8" xmlns:cc="http://creativecommons.org/ns#" xmlns:dc="http://purl.org/dc/elements/1.1/" xmlns:rdf="http://www.w3.org/1999/02/22-rdf-syntax-ns#" xmlns:svg="http://www.w3.org/2000/svg"
	 xmlns="http://www.w3.org/2000/svg" xmlns:xlink="http://www.w3.org/1999/xlink" x="0px" y="0px" viewBox="0 0 100 100"
	 style="enable-background:new 0 0 100 100;" xml:space="preserve">
<style type="text/css">
	.st0{fill:#262626;}
	.st1{fill:#4D4D4D;}
</style>
<g id="layer1" transform="translate(-77.942529,-177.00005)">
	<g id="g4550">
		<path id="path4508" d="M134.6,192.4v15.4l26.6,15.4v-15.4L134.6,192.4z M81.3,207.8v15.4l13.3,7.7v-15.4L81.3,207.8z M121.3,215.5
			l-13.3,7.7v46.2l13.3,7.7v-30.8l13.3,7.7v-15.4l-13.3-7.7V215.5z"/>
		<path id="path4491" class="st0" d="M134.6,192.4l-40,23.1v15.4l26.6-15.4v15.4l13.3-7.7V192.4z M174.6,200.1l-13.3,7.7v15.4
			l13.3-7.7V200.1z M147.9,230.8l-13.3,7.7v15.4l13.3-7.7V230.8z M134.6,253.9l-13.3-7.7V277l13.3-7.7V253.9z"/>
		<path id="path4506" class="st1" d="M134.6,177l-53.3,30.8l13.3,7.7l40-23.1l26.6,15.4l13.3-7.7L134.6,177z M134.6,223.2l-13.3,7.7
			l13.3,7.7l13.3-7.7L134.6,223.2z"/>
	</g>
</g>
</svg>
