<?xml version="1.0" encoding="utf-8"?>
<!-- Generator: Adobe Illustrator 24.2.1, SVG Export Plug-In . SVG Version: 6.00 Build 0)  -->
<svg version="1.1" id="Layer_1" xmlns="http://www.w3.org/2000/svg" xmlns:xlink="http://www.w3.org/1999/xlink" x="0px" y="0px"
	 viewBox="0 0 100 112.5" style="enable-background:new 0 0 100 112.5;" xml:space="preserve">
<style type="text/css">
	.st0{fill:#00599C;}
	.st1{fill:#004482;}
	.st2{fill:#659AD2;}
	.st3{fill:#FFFFFF;}
</style>
<path class="st0" d="M98.7,84.4c0.8-1.4,1.3-2.9,1.3-4.3V32.4c0-1.4-0.5-2.9-1.3-4.3L50,56.3L98.7,84.4z"/>
<path class="st1" d="M54.3,111.5l41.3-23.9c1.2-0.7,2.3-1.9,3.1-3.2L50,56.3L1.3,84.4c0.8,1.4,1.9,2.5,3.1,3.2l41.3,23.9
	C48.1,112.9,51.9,112.9,54.3,111.5z"/>
<path class="st2" d="M98.7,28.1c-0.8-1.4-1.9-2.5-3.1-3.2L54.3,1c-2.4-1.4-6.3-1.4-8.7,0L4.3,24.9C1.9,26.3,0,29.6,0,32.4v47.7
	c0,1.4,0.5,2.9,1.3,4.3L50,56.3L98.7,28.1z"/>
<g>
	<path class="st3" d="M50,89.6c-18.4,0-33.3-15-33.3-33.3s15-33.3,33.3-33.3c11.9,0,22.9,6.4,28.9,16.7l-14.4,8.3
		c-3-5.1-8.5-8.3-14.4-8.3c-9.2,0-16.7,7.5-16.7,16.7c0,9.2,7.5,16.7,16.7,16.7c5.9,0,11.5-3.2,14.4-8.3l14.4,8.3
		C72.9,83.2,61.9,89.6,50,89.6z"/>
</g>
<g>
	<polygon class="st3" points="83.3,54.4 79.6,54.4 79.6,50.7 75.9,50.7 75.9,54.4 72.2,54.4 72.2,58.1 75.9,58.1 75.9,61.8 
		79.6,61.8 79.6,58.1 83.3,58.1 	"/>
</g>
<g>
	<polygon class="st3" points="97.2,54.4 93.5,54.4 93.5,50.7 89.8,50.7 89.8,54.4 86.1,54.4 86.1,58.1 89.8,58.1 89.8,61.8 
		93.5,61.8 93.5,58.1 97.2,58.1 	"/>
</g>
</svg>
