<?xml version="1.0" encoding="utf-8"?>
<!-- Generator: Adobe Illustrator 24.2.1, SVG Export Plug-In . SVG Version: 6.00 Build 0)  -->
<svg version="1.1" id="Layer_1" xmlns="http://www.w3.org/2000/svg" xmlns:xlink="http://www.w3.org/1999/xlink" x="0px" y="0px"
	 viewBox="0 0 100 37.3" style="enable-background:new 0 0 100 37.3;" xml:space="preserve">
<style type="text/css">
	.st0{fill:#00ACD7;}
</style>
<g>
	<g>
		<g>
			<g>
				<path class="st0" d="M7.5,11.3c-0.2,0-0.2-0.1-0.1-0.2l1-1.3C8.5,9.6,8.8,9.5,9,9.5h17.4c0.2,0,0.2,0.1,0.1,0.3L25.7,11
					c-0.1,0.1-0.3,0.3-0.5,0.3L7.5,11.3z"/>
			</g>
		</g>
	</g>
	<g>
		<g>
			<g>
				<path class="st0" d="M0.2,15.8c-0.2,0-0.2-0.1-0.1-0.2l1-1.3C1.2,14.1,1.4,14,1.6,14h22.2c0.2,0,0.3,0.1,0.2,0.3l-0.4,1.2
					c0,0.2-0.2,0.3-0.4,0.3L0.2,15.8z"/>
			</g>
		</g>
	</g>
	<g>
		<g>
			<g>
				<path class="st0" d="M12,20.2c-0.2,0-0.2-0.1-0.1-0.3l0.7-1.2c0.1-0.1,0.3-0.3,0.5-0.3h9.7c0.2,0,0.3,0.1,0.3,0.3L22.9,20
					c0,0.2-0.2,0.3-0.3,0.3L12,20.2z"/>
			</g>
		</g>
	</g>
	<g>
		<g id="CXHf1q_3_">
			<g>
				<g>
					<path class="st0" d="M62.5,10.4c-3.1,0.8-5.2,1.4-8.2,2.1c-0.7,0.2-0.8,0.2-1.4-0.5c-0.7-0.8-1.3-1.4-2.3-1.9
						c-3.1-1.5-6-1.1-8.8,0.7c-3.3,2.1-5,5.3-5,9.3c0,3.9,2.7,7.1,6.6,7.6c3.3,0.4,6.1-0.7,8.3-3.2c0.4-0.5,0.8-1.1,1.3-1.8
						c-1.8,0-3.9,0-9.4,0c-1,0-1.3-0.6-0.9-1.5c0.6-1.5,1.8-4,2.5-5.3c0.1-0.3,0.5-0.8,1.2-0.8c2.5,0,11.6,0,17.7,0
						c-0.1,1.3-0.1,2.6-0.3,3.9c-0.5,3.5-1.9,6.7-4,9.5c-3.5,4.6-8.1,7.5-13.9,8.3c-4.8,0.6-9.2-0.3-13.1-3.2
						c-3.6-2.7-5.6-6.3-6.2-10.8c-0.6-5.3,0.9-10.1,4.1-14.3c3.5-4.5,8-7.4,13.6-8.4c4.6-0.8,9-0.3,12.9,2.4c2.6,1.7,4.4,4,5.6,6.9
						C63.3,10,63.1,10.3,62.5,10.4z"/>
				</g>
				<g>
					<path class="st0" d="M78.6,37.3c-4.4-0.1-8.5-1.4-11.9-4.3c-2.9-2.5-4.7-5.6-5.3-9.4c-0.9-5.5,0.6-10.4,3.9-14.7
						c3.6-4.7,7.8-7.1,13.6-8.1c5-0.9,9.6-0.4,13.9,2.5c3.8,2.6,6.2,6.2,6.9,10.9c0.8,6.6-1.1,11.9-5.6,16.5
						C91,33.9,87,36,82.5,36.9C81.2,37.1,79.9,37.2,78.6,37.3z M90.2,17.7c0-0.6,0-1.1-0.1-1.6c-0.9-4.8-5.3-7.5-9.9-6.5
						c-4.5,1-7.4,3.9-8.5,8.5c-0.9,3.8,1,7.6,4.5,9.2c2.7,1.2,5.4,1,7.9-0.3C87.9,25,90,21.9,90.2,17.7z"/>
				</g>
			</g>
		</g>
	</g>
</g>
</svg>
