<?xml version="1.0" encoding="utf-8"?>
<!-- Generator: Adobe Illustrator 24.2.1, SVG Export Plug-In . SVG Version: 6.00 Build 0)  -->
<svg version="1.1"
	 id="svg2169" xmlns:cc="http://web.resource.org/cc/" xmlns:dc="http://purl.org/dc/elements/1.1/" xmlns:inkscape="http://www.inkscape.org/namespaces/inkscape" xmlns:rdf="http://www.w3.org/1999/02/22-rdf-syntax-ns#" xmlns:sodipodi="http://sodipodi.sourceforge.net/DTD/sodipodi-0.dtd" xmlns:svg="http://www.w3.org/2000/svg"
	 xmlns="http://www.w3.org/2000/svg" xmlns:xlink="http://www.w3.org/1999/xlink" x="0px" y="0px" viewBox="0 0 100 99.5"
	 style="enable-background:new 0 0 100 99.5;" xml:space="preserve">
<style type="text/css">
	.st0{fill:url(#path8615_1_);}
	.st1{fill:url(#path8620_1_);}
</style>
<sodipodi:namedview  bordercolor="#666666" borderopacity="1.0" height="184.25197px" id="base" inkscape:current-layer="layer1" inkscape:cx="-260.46312" inkscape:cy="316.02744" inkscape:document-units="px" inkscape:pageopacity="0.0" inkscape:pageshadow="2" inkscape:window-height="624" inkscape:window-width="872" inkscape:window-x="5" inkscape:window-y="48" inkscape:zoom="0.24748737" pagecolor="#ffffff" width="131.10236px">
	</sodipodi:namedview>
<g id="layer1" transform="translate(-473.36088,-251.72485)" inkscape:groupmode="layer" inkscape:label="Calque 1">
	<g id="g1894" transform="translate(428.42338,184.2561)">
		
			<linearGradient id="path8615_1_" gradientUnits="userSpaceOnUse" x1="99.2504" y1="92.7038" x2="148.6975" y2="43.0914" gradientTransform="matrix(1 0 0 -1 -44.9375 169.1019)">
			<stop  offset="0" style="stop-color:#387EB8"/>
			<stop  offset="1" style="stop-color:#366994"/>
		</linearGradient>
		<path id="path8615" class="st0" d="M94.6,67.5c-25.4,0-23.8,11-23.8,11l0,11.4H95v3.4H61.2c0,0-16.2-1.8-16.2,23.8
			c0,25.6,14.2,24.7,14.2,24.7h8.5v-11.9c0,0-0.5-14.2,14-14.2s24,0,24,0s13.5,0.2,13.5-13s0-21.9,0-21.9S121.1,67.5,94.6,67.5z
			 M81.2,75.1c2.4,0,4.4,1.9,4.4,4.4s-1.9,4.4-4.4,4.4s-4.4-1.9-4.4-4.4S78.8,75.1,81.2,75.1z"/>
		
			<linearGradient id="path8620_1_" gradientUnits="userSpaceOnUse" x1="129.6577" y1="61.1206" x2="182.7641" y2="10.2421" gradientTransform="matrix(1 0 0 -1 -44.9375 169.1019)">
			<stop  offset="0" style="stop-color:#FFE052"/>
			<stop  offset="1" style="stop-color:#FFC331"/>
		</linearGradient>
		<path id="path8620" class="st1" d="M95.3,166.9c25.4,0,23.8-11,23.8-11l0-11.4H94.8v-3.4h33.8c0,0,16.2,1.8,16.2-23.8
			c0-25.6-14.2-24.7-14.2-24.7h-8.5v11.9c0,0,0.5,14.2-14,14.2c-14.4,0-24,0-24,0s-13.5-0.2-13.5,13s0,21.9,0,21.9
			S68.8,166.9,95.3,166.9z M108.7,159.3c-2.4,0-4.4-1.9-4.4-4.4s1.9-4.4,4.4-4.4s4.4,1.9,4.4,4.4C113,157.3,111.1,159.3,108.7,159.3
			z"/>
	</g>
</g>
</svg>
